<svg width="1078" height="146" viewBox="0 0 1078 146" fill="none" xmlns="http://www.w3.org/2000/svg">
<g clip-path="url(#clip0_243_44468)">
<g clip-path="url(#clip1_243_44468)">
<rect width="1078" height="146" rx="8" fill="#E6E6E6"/>
<path d="M189.009 37.1639C186.952 37.1639 185.284 35.5602 185.284 33.582C185.284 31.6037 186.952 30 189.009 30C191.067 30 192.734 31.6037 192.734 33.582C192.734 35.5602 191.067 37.1639 189.009 37.1639Z" fill="#EBA722" stroke="black" stroke-miterlimit="10"/>
<path d="M258.723 45.4446C257.772 45.4446 257.001 44.6735 257.001 43.7223C257.001 42.7711 257.772 42 258.723 42C259.674 42 260.445 42.7711 260.445 43.7223C260.445 44.6735 259.674 45.4446 258.723 45.4446Z" fill="#F4F4F4" stroke="black" stroke-linejoin="round"/>
<path d="M156.012 11.4446C155.061 11.4446 154.29 10.6735 154.29 9.72229C154.29 8.7711 155.061 8 156.012 8C156.963 8 157.734 8.7711 157.734 9.72229C157.734 10.6735 156.963 11.4446 156.012 11.4446Z" fill="#FFE2CE" stroke="black" stroke-linejoin="round"/>
<path d="M85.0121 104.445C84.0609 104.445 83.2898 103.673 83.2898 102.722C83.2898 101.771 84.0609 101 85.0121 101C85.9633 101 86.7344 101.771 86.7344 102.722C86.7344 103.673 85.9633 104.445 85.0121 104.445Z" fill="#FFE2CE" stroke="black" stroke-linejoin="round"/>
<path d="M218.012 27.4446C217.061 27.4446 216.29 26.6735 216.29 25.7223C216.29 24.7711 217.061 24 218.012 24C218.963 24 219.734 24.7711 219.734 25.7223C219.734 26.6735 218.963 27.4446 218.012 27.4446Z" fill="#F8D8D8" stroke="black" stroke-linejoin="round"/>
<path d="M66.8659 68.737C64.7293 68.737 62.9973 67.005 62.9973 64.8685C62.9973 62.732 64.7293 61 66.8659 61C69.0024 61 70.7344 62.732 70.7344 64.8685C70.7344 67.005 69.0024 68.737 66.8659 68.737Z" fill="#0E7BC4" stroke="black" stroke-miterlimit="10"/>
<path d="M97.7255 36.0177C96.0638 36.0177 94.7167 34.6706 94.7167 33.0088C94.7167 31.3471 96.0638 30 97.7255 30C99.3873 30 100.734 31.3471 100.734 33.0088C100.734 34.6706 99.3873 36.0177 97.7255 36.0177Z" fill="#FA6400" stroke="black" stroke-linejoin="round"/>
<path d="M203.726 138.018C202.064 138.018 200.717 136.671 200.717 135.009C200.717 133.347 202.064 132 203.726 132C205.387 132 206.734 133.347 206.734 135.009C206.734 136.671 205.387 138.018 203.726 138.018Z" fill="#FA6400" stroke="black" stroke-linejoin="round"/>
<path d="M67.7255 135.018C66.0638 135.018 64.7167 133.671 64.7167 132.009C64.7167 130.347 66.0638 129 67.7255 129C69.3873 129 70.7344 130.347 70.7344 132.009C70.7344 133.671 69.3873 135.018 67.7255 135.018Z" fill="#B9E8B9" stroke="black" stroke-linejoin="round"/>
<path d="M241.234 103C239.854 103 238.734 101.881 238.734 100.5C238.734 99.1193 239.854 98 241.234 98C242.615 98 243.734 99.1193 243.734 100.5C243.734 101.881 242.615 103 241.234 103Z" fill="#EFC13D" stroke="black" stroke-linejoin="round"/>
<path d="M170.252 99.7447C171.718 105.219 171.82 109.888 170.003 110.634C168.292 111.334 162.59 108.653 161.122 103.179C159.654 97.7054 161.624 91.1254 164.361 90.6984C166.188 90.4137 168.785 94.2707 170.252 99.7447Z" fill="black"/>
<path d="M150.203 60.6776C150.203 59.8702 150.474 45.8329 131.24 48.1382C113.565 50.2569 113.019 66.0536 113.019 66.0536C113.019 66.0536 112.569 70.6946 114.914 77.8602C118.061 87.4852 115.044 94.9099 113.348 97.6539C111.652 100.398 125.096 98.9722 125.096 98.9722L150.203 60.6776Z" fill="#FFBE53" stroke="black" stroke-width="0.7" stroke-miterlimit="10"/>
<path d="M157.948 95.9068C157.948 95.9068 174.575 85.0102 174.818 84.6882C175.061 84.3662 178.288 80.9758 181.678 79.6038C185.068 78.2318 191.525 75.6862 193.219 74.6525C194.913 73.6188 201.936 69.5961 201.936 69.5961C201.936 69.5961 206.456 65.9631 206.859 65.8021C207.263 65.6411 212.347 64.2691 213.558 64.2691C214.769 64.2691 222.425 63.9448 223.162 64.2691C223.9 64.5935 228.086 65.3168 228.893 65.6411C229.7 65.9655 230.102 67.2605 228.893 67.6198C227.684 67.9791 221.135 67.9161 221.135 67.9161L222.425 71.1291C222.425 71.1291 222.91 72.5012 222.425 73.4625C221.94 74.4238 222.346 73.8918 222.346 74.8065C222.346 75.7212 222.579 75.5602 222.021 76.6895C221.464 77.8188 221.699 78.1432 220.731 78.5562C219.763 78.9692 218.148 78.9668 218.148 78.9668C218.148 78.9668 219.277 80.7355 218.633 81.3002C217.989 81.8648 217.18 81.8648 215.969 80.8172C214.758 79.7695 214.193 79.9282 213.225 79.6855C212.256 79.4428 211.045 78.4745 210.481 78.0732C209.916 77.6718 208.068 76.7781 208.068 76.7781C208.068 76.7781 207.835 75.7282 205.163 77.3428C202.491 78.9575 196.366 82.9918 194.833 84.5272C193.3 86.0625 188.456 91.6298 186.2 92.7592L179.097 96.3105L164.274 109.305C164.274 109.305 156.968 98.6508 157.948 95.9068Z" fill="#FFB7CC" stroke="black" stroke-width="0.7" stroke-linecap="round" stroke-linejoin="round"/>
<path d="M211.135 72.1855C211.135 72.1855 213.154 75.0019 213.84 75.4055C214.526 75.8092 217.914 78.5369 218.156 78.9639" stroke="black" stroke-width="0.7" stroke-miterlimit="10" stroke-linecap="round"/>
<path d="M218.157 68.4873L221.426 67.918" stroke="black" stroke-width="0.7" stroke-miterlimit="10" stroke-linecap="round"/>
<path d="M218.156 70.2812C218.238 70.4026 217.148 72.3813 217.391 73.0253C217.634 73.6693 219.258 73.4289 219.258 73.4289" stroke="black" stroke-width="0.7" stroke-miterlimit="10" stroke-linecap="round"/>
<path d="M213.72 74.6507C213.72 74.5574 213.277 73.3347 213.921 72.8564C214.565 72.3781 215.575 72.6604 215.979 73.0641C216.383 73.4677 218.312 73.4607 218.312 73.4607" stroke="black" stroke-width="0.7" stroke-miterlimit="10" stroke-linecap="round"/>
<path d="M214.648 70.2812C214.648 70.2812 213.545 72.2529 214.217 72.6986" stroke="black" stroke-width="0.7" stroke-miterlimit="10" stroke-linecap="round"/>
<path d="M215.47 76.619C215.47 76.619 220.904 77.4823 222.176 76.4043" stroke="black" stroke-width="0.7" stroke-miterlimit="10" stroke-linecap="round"/>
<path d="M146.408 90.1758C146.408 90.1758 148.83 92.0028 151.119 91.9211C153.501 91.8567 155.875 91.6141 158.222 91.1954C160.966 90.7124 163.199 90.2621 164.946 90.7288C164.946 90.7288 161.978 90.8921 161.663 93.9581C161.246 97.9994 161.687 106.808 165.863 108.975C168.813 110.504 169.891 110.422 169.891 110.422C169.891 110.422 167.235 112.786 165.051 113.252C161.974 113.908 162.055 114.886 162.62 117.541C163.668 122.464 165.443 128.041 165.203 134.005C164.963 139.969 165.294 141.005 165.294 142.951V146.341H114.528C114.528 146.341 115.82 141.339 114.528 137.223C113.235 133.107 111.623 126.648 112.269 125.358C112.915 124.067 110.622 125.001 108.666 123.23C106.349 121.13 104.954 115.24 105.115 112.172C105.276 109.104 105.477 104.675 106.606 101.924C109.406 95.1294 115.939 94.9824 119.318 94.2241C120.912 93.8624 146.408 90.1758 146.408 90.1758Z" fill="#FE6529" stroke="black" stroke-width="0.7" stroke-linecap="round" stroke-linejoin="round"/>
<path d="M149.483 60.1405C149.483 60.1405 146.259 57.3989 145.349 56.7339C144.439 56.0689 144.814 55.0469 143.907 55.0469C142.999 55.0469 132.707 55.6512 127.573 63.0969C122.44 70.5425 122.907 73.0859 122.428 73.8115C121.95 74.5372 121.707 75.0552 120.562 74.1452C119.416 73.2352 118.861 73.0275 117.881 73.4312C116.065 74.1779 116.609 77.7082 117.82 79.5235C119.031 81.3389 119.939 83.0026 123.026 81.8569L125.989 87.3519C126.537 88.1361 127.221 88.8164 128.007 89.3609L128.168 88.9455L132.163 99.7186C132.163 99.7186 136.34 104.563 143.181 102.262C150.022 99.9612 147.297 90.9429 147.297 90.9429C147.297 90.9429 146.994 90.3362 147.53 89.1859C148.067 88.0355 151.03 84.3956 151.03 82.5196C151.03 79.9156 151.695 72.8642 151.695 72.8642C151.695 72.8642 150.832 61.7435 149.483 60.1405Z" fill="#FFB7CC" stroke="black" stroke-width="0.7" stroke-linecap="round" stroke-linejoin="round"/>
<path d="M170.035 60.5195C170.035 60.5195 165.406 61.9849 161.402 61.6862C158.674 61.4809 157.832 61.5999 157.577 61.6862C157.478 61.7168 157.372 61.7248 157.269 61.7095L149.931 60.6432L151.627 73.7285C151.627 73.7285 154.864 73.0589 155.893 72.8629C156.922 72.6669 157.386 73.1919 158.476 73.3132C159.565 73.4345 161.46 73.1102 161.885 73.0355C162.309 72.9609 166.495 74.3679 170.73 74.6432C174.508 74.8859 170.035 60.5195 170.035 60.5195Z" fill="#3381ED" stroke="black" stroke-width="0.7" stroke-linejoin="round"/>
<path d="M142.331 61.3416C142.453 61.1083 142.565 59.678 140.334 59.5123C138.103 59.3466 132.102 61.6846 132.102 61.6846C132.102 61.6846 130.891 62.492 129.862 65.4576C128.833 68.4233 128.411 67.8796 128.047 69.7556C127.683 71.6316 127.683 75.4443 128.471 78.1696C129.26 80.895 128.59 84.766 127.382 87.006C126.173 89.246 115.759 105.166 115.759 105.166L115.388 105.633C115.388 105.633 112.248 104.508 109.221 109.107C106.195 113.706 106.669 115.032 106.608 116.061C106.547 117.09 108.253 127.571 113.459 129.93C118.664 132.289 122.668 126.171 122.668 126.171L135.805 90.093L138.346 82.6473C138.346 82.6473 139.314 80.832 143.19 78.291C147.066 75.75 142.331 61.3416 142.331 61.3416Z" fill="#FFB7CC" stroke="black" stroke-width="0.7" stroke-linecap="round" stroke-linejoin="round"/>
<path d="M111.302 110.513L115.406 105.674" stroke="black" stroke-width="0.7" stroke-miterlimit="10" stroke-linecap="round"/>
<path d="M171.138 74.6517C167.345 74.6517 164.269 71.4676 164.269 67.5397C164.269 63.6119 167.345 60.4277 171.138 60.4277C174.932 60.4277 178.008 63.6119 178.008 67.5397C178.008 71.4676 174.932 74.6517 171.138 74.6517Z" fill="#FFBE53" stroke="black" stroke-width="0.7" stroke-miterlimit="10"/>
<path d="M171.385 72.858C168.548 72.858 166.247 70.4772 166.247 67.5403C166.247 64.6035 168.548 62.2227 171.385 62.2227C174.223 62.2227 176.523 64.6035 176.523 67.5403C176.523 70.4772 174.223 72.858 171.385 72.858Z" fill="black"/>
<path d="M148.117 88.2656C148.117 88.2656 144.851 93.343 139.402 91.5323" stroke="black" stroke-width="0.7" stroke-linecap="round" stroke-linejoin="round"/>
<path d="M162.125 61.918C161.355 62.6413 159.876 64.018 159.953 67.448C160.006 69.954 160.935 71.4916 162.125 73.048" stroke="black" stroke-width="0.7" stroke-linecap="round" stroke-linejoin="round"/>
<path d="M157.727 61.6133C156.957 62.3646 155.477 63.7856 155.552 67.3603C155.608 69.9643 156.537 71.5603 157.727 73.1679" stroke="black" stroke-width="0.7" stroke-linecap="round" stroke-linejoin="round"/>
<path d="M144.32 75.6178C143.956 75.5572 136.301 74.4931 136.301 74.4931L135.09 72.1738L134.376 70.4472C134.123 69.7875 133.99 69.0884 133.981 68.3821L134.266 67.2388C134.563 66.7353 134.914 66.2658 135.314 65.8388L140.636 61.1465L144.32 75.6178Z" fill="#3381ED" stroke="black" stroke-width="0.7" stroke-linejoin="round"/>
<path d="M145.445 76.3211C140.962 76.3211 137.327 72.5582 137.327 67.9164C137.327 63.2746 140.962 59.5117 145.445 59.5117C149.928 59.5117 153.562 63.2746 153.562 67.9164C153.562 72.5582 149.928 76.3211 145.445 76.3211Z" fill="#FFBE53" stroke="black" stroke-width="0.7" stroke-miterlimit="10"/>
<path d="M145.349 74.4932C141.84 74.4932 138.996 71.5483 138.996 67.9156C138.996 64.2828 141.84 61.3379 145.349 61.3379C148.858 61.3379 151.703 64.2828 151.703 67.9156C151.703 71.5483 148.858 74.4932 145.349 74.4932Z" fill="black"/>
<path d="M137.598 79.5241C137.598 79.5241 137.115 75.7301 135.823 73.5507C134.53 71.3714 133.403 68.7091 134.451 66.9334C135.498 65.1577 137.862 63.9817 139.297 62.4277" stroke="black" stroke-width="0.7" stroke-linecap="round" stroke-linejoin="round"/>
</g>
<path d="M1027.72 61.4446C1026.77 61.4446 1026 60.6735 1026 59.7223C1026 58.7711 1026.77 58 1027.72 58C1028.67 58 1029.45 58.7711 1029.45 59.7223C1029.45 60.6735 1028.67 61.4446 1027.72 61.4446Z" fill="#F8D8D8" stroke="black" stroke-linejoin="round"/>
<path d="M1014.72 32.4661C1013.77 32.4661 1013 31.695 1013 30.7438C1013 29.7926 1013.77 29.0215 1014.72 29.0215C1015.67 29.0215 1016.45 29.7926 1016.45 30.7438C1016.45 31.695 1015.67 32.4661 1014.72 32.4661Z" fill="#258825" stroke="black" stroke-linejoin="round"/>
<path d="M863.866 112.759C861.729 112.759 859.997 111.027 859.997 108.89C859.997 106.753 861.729 105.021 863.866 105.021C866.002 105.021 867.734 106.753 867.734 108.89C867.734 111.027 866.002 112.759 863.866 112.759Z" fill="#0E7BC4" stroke="black" stroke-miterlimit="10"/>
<path d="M1031.01 119.039C1029.35 119.039 1028 117.692 1028 116.03C1028 114.369 1029.35 113.021 1031.01 113.021C1032.67 113.021 1034.02 114.369 1034.02 116.03C1034.02 117.692 1032.67 119.039 1031.01 119.039Z" fill="#FA6400" stroke="black" stroke-linejoin="round"/>
<path d="M968.007 29.0392C966.345 29.0392 964.998 27.6921 964.998 26.0303C964.998 24.3686 966.345 23.0215 968.007 23.0215C969.669 23.0215 971.016 24.3686 971.016 26.0303C971.016 27.6921 969.669 29.0392 968.007 29.0392Z" fill="#FA6400" stroke="black" stroke-linejoin="round"/>
<path d="M887.011 48.0392C885.349 48.0392 884.002 46.6921 884.002 45.0303C884.002 43.3686 885.349 42.0215 887.011 42.0215C888.672 42.0215 890.02 43.3686 890.02 45.0303C890.02 46.6921 888.672 48.0392 887.011 48.0392Z" fill="#B9E8B9" stroke="black" stroke-linejoin="round"/>
<path d="M1006.01 86.0177C1004.35 86.0177 1003 84.6706 1003 83.0088C1003 81.3471 1004.35 80 1006.01 80C1007.67 80 1009.02 81.3471 1009.02 83.0088C1009.02 84.6706 1007.67 86.0177 1006.01 86.0177Z" fill="#B9E8B9" stroke="black" stroke-linejoin="round"/>
<path d="M857.5 75.0215C856.119 75.0215 855 73.9022 855 72.5215C855 71.1408 856.119 70.0215 857.5 70.0215C858.881 70.0215 860 71.1408 860 72.5215C860 73.9022 858.881 75.0215 857.5 75.0215Z" fill="#EFC13D" stroke="black" stroke-linejoin="round"/>
<path d="M917.872 27.219C914.985 20.4824 906.805 19.5201 903.437 24.3319C891.888 13.9384 880.823 20.4831 879.859 29.1437C865.616 31.4534 869.274 54.1652 885.633 52.7217C888.712 63.8851 903.437 61.3829 906.805 55.1276C914.985 59.4582 925.09 51.7593 921.722 44.5416C932.791 40.2115 925.573 25.776 917.872 27.219Z" fill="white" stroke="black"/>
<path d="M919.3 72.4515C919.3 73.0561 918.975 73.6416 918.373 74.093C917.771 74.5446 916.916 74.8386 915.951 74.8386C914.986 74.8386 914.131 74.5446 913.529 74.093C912.927 73.6416 912.602 73.0561 912.602 72.4515C912.602 71.847 912.927 71.2615 913.529 70.8101C914.131 70.3585 914.986 70.0645 915.951 70.0645C916.916 70.0645 917.771 70.3585 918.373 70.8101C918.975 71.2615 919.3 71.847 919.3 72.4515Z" fill="white" stroke="black"/>
<path d="M912.843 63.7511C912.843 65.2746 911.409 66.6194 909.494 66.6194C907.579 66.6194 906.145 65.2746 906.145 63.7511C906.145 62.2276 907.579 60.8828 909.494 60.8828C911.409 60.8828 912.843 62.2276 912.843 63.7511Z" fill="white" stroke="black"/>
<path fill-rule="evenodd" clip-rule="evenodd" d="M896.29 36.645L895.059 32.4559C897.752 31.2447 900.209 31.1558 901.908 32.4398C902.797 33.112 903.445 34.1565 903.651 35.4513C903.853 36.7192 903.594 37.9737 903.076 39.0402C902.706 39.8034 902.368 40.4106 902.088 40.9084C902.068 40.9442 902.048 40.9791 902.029 41.0131C901.769 41.4745 901.596 41.7815 901.455 42.0811C901.224 42.5701 901.081 43.0174 901.081 44.0225H897.465C897.465 42.2423 897.784 41.0181 898.341 39.8353C898.727 39.0168 901.019 36.6677 900.352 35.8424C899.684 35.017 898.908 34.88 896.29 36.645Z" fill="#FA6400" stroke="black"/>
<circle cx="899.39" cy="47.3903" r="1.90591" fill="#FA6400" stroke="black"/>
<path d="M889.285 140.076C889.285 141.616 890.889 144.888 891.691 146.331L1000.92 146.331C1004.29 146.331 1005.25 143.926 1005.25 142.482V131.896C1005.25 128.431 1001.72 125.32 999.957 124.197C999.155 123.235 997.551 121.021 997.551 119.866C997.551 118.423 993.702 114.092 992.739 113.611C991.777 113.13 990.815 112.167 990.815 110.243C990.815 108.318 989.371 105.912 987.446 104.469C985.522 103.025 982.153 98.2132 981.672 95.3261C981.191 92.439 981.672 93.4014 980.229 91.9578C979.459 91.1879 970.124 87.6272 970.124 87.6272C970.124 87.6272 969.739 88.8783 964.35 86.1837C957.613 82.8154 940.29 83.2966 937.885 83.7777C935.479 84.2589 931.148 85.2213 929.704 86.1837C928.261 87.146 926.817 87.146 925.855 87.6272C924.893 88.1084 921.043 89.0708 918.156 90.5143C915.269 91.9578 913.344 91.9578 912.863 95.8073C912.382 99.6568 907.57 103.987 905.645 105.912C903.721 107.837 903.721 109.762 903.721 111.205C903.721 112.649 898.428 117.942 897.946 118.904C897.465 119.866 897.946 120.829 896.984 122.272C896.022 123.716 889.285 129.49 889.285 130.934V140.076Z" fill="#EFC13D" stroke="black"/>
<path d="M906.992 114.234C908.531 120.394 912.766 137.973 914.691 145.992H980.614C982.538 137.812 986.677 120.009 987.831 114.234C989.275 107.017 983.02 103.648 977.245 103.648H914.691C910.841 103.648 905.067 106.536 906.992 114.234Z" fill="#2970BC" stroke="black"/>
<path d="M956.17 82.9993V78.1875L939.328 77.707C939.327 79.1506 939.328 80.9791 939.328 84.4436C939.328 88.7742 943.659 92.6237 948.471 92.6237C953.283 92.6237 956.17 88.2923 956.17 82.9993Z" fill="#FFB7CC" stroke="black"/>
<path d="M934.52 65.1532V59.379C934.52 54.086 942.218 48.793 947.511 48.793C952.804 48.793 956.654 51.6801 957.616 52.6424C958.386 53.4123 958.899 57.1335 959.06 58.8978C959.22 60.5017 959.445 63.9021 959.06 64.672C958.675 65.4419 958.579 70.4462 958.579 72.8521C958.579 73.8144 957.616 76.2204 956.654 77.1827C955.884 77.9526 952.804 81.6738 951.361 83.4381C950.88 84.0797 949.436 85.3628 947.511 85.3628C945.587 85.3628 944.143 84.0797 943.662 83.4381C942.218 81.8342 939.043 78.1451 937.888 76.2204C936.444 73.8144 935.963 70.9274 935.963 69.4838C935.963 68.329 935.001 66.1155 934.52 65.1532Z" fill="#FFB7CC" stroke="black"/>
<path d="M936.339 72.4709C936.862 70.3184 935.294 66.0134 934.249 65.1523C931.115 65.1523 933.204 71.6099 934.249 72.4709C935.085 73.1597 935.991 72.7579 936.339 72.4709Z" fill="#FFB7CC" stroke="black"/>
<path d="M958.914 72.3693C958.733 70.0196 959.058 64.6708 959.058 64.6708C962.04 63.7025 961.566 69.7835 960.838 70.9252C960.255 71.8386 959.334 72.5347 958.914 72.3693Z" fill="#FFB7CC" stroke="black"/>
<path d="M955.043 58.4153C955.043 59.3776 956.486 63.2271 958.411 64.1895C958.571 63.7083 958.892 62.361 958.892 60.8212C958.892 59.2814 958.571 56.3302 958.411 55.047C958.571 54.5658 958.122 52.9298 955.043 50.2351C951.194 46.8668 945.419 46.3857 943.013 47.348C941.569 48.3104 938.682 48.3104 938.682 48.7916C938.682 49.2727 935.314 52.641 934.352 53.6035C933.39 54.5659 933.39 57.934 933.871 58.4153C934.256 58.8003 934.352 62.1043 934.352 63.7082C934.352 64.1894 934.448 65.1518 934.833 65.1518C936.277 64.6706 935.795 57.934 935.795 57.4528C935.795 56.9717 936.758 56.4905 937.72 56.4905H945.419C947.825 56.4905 950.712 54.0846 952.637 53.6035C954.177 53.2185 954.882 54.0846 955.043 54.5658V58.4153Z" fill="#C85000" stroke="black"/>
</g>
<defs>
<clipPath id="clip0_243_44468">
<rect width="1078" height="146" fill="white"/>
</clipPath>
<clipPath id="clip1_243_44468">
<rect width="1078" height="146" rx="8" fill="white"/>
</clipPath>
</defs>
</svg>
