<?xml version="1.0" encoding="UTF-8" standalone="no"?>
<!-- Creator: CorelDRAW -->

<svg
   xmlns:dc="http://purl.org/dc/elements/1.1/"
   xmlns:cc="http://creativecommons.org/ns#"
   xmlns:rdf="http://www.w3.org/1999/02/22-rdf-syntax-ns#"
   xmlns:svg="http://www.w3.org/2000/svg"
   xmlns="http://www.w3.org/2000/svg"
   xmlns:sodipodi="http://sodipodi.sourceforge.net/DTD/sodipodi-0.dtd"
   xmlns:inkscape="http://www.inkscape.org/namespaces/inkscape"
   xml:space="preserve"
   width="550px"
   height="160px"
   style="shape-rendering:geometricPrecision; text-rendering:geometricPrecision; image-rendering:optimizeQuality; fill-rule:evenodd; clip-rule:evenodd"
   viewBox="0 0 550 159.999"
   id="svg3049"
   version="1.1"
   inkscape:version="0.48.1 "
   sodipodi:docname="bancogaliciahigh.svg"><metadata
   id="metadata3094"><rdf:RDF><cc:Work
       rdf:about=""><dc:format>image/svg+xml</dc:format><dc:type
         rdf:resource="http://purl.org/dc/dcmitype/StillImage" /></cc:Work></rdf:RDF></metadata><sodipodi:namedview
   pagecolor="#ffffff"
   bordercolor="#666666"
   borderopacity="1"
   objecttolerance="10"
   gridtolerance="10"
   guidetolerance="10"
   inkscape:pageopacity="0"
   inkscape:pageshadow="2"
   inkscape:window-width="1366"
   inkscape:window-height="706"
   id="namedview3092"
   showgrid="false"
   inkscape:zoom="1.5069278"
   inkscape:cx="275"
   inkscape:cy="80"
   inkscape:window-x="-8"
   inkscape:window-y="-8"
   inkscape:window-maximized="1"
   inkscape:current-layer="svg3049" />
 <defs
   id="defs3051">
  <style
   type="text/css"
   id="style3053">
   
    .fil3 {fill:#AD2931}
    .fil2 {fill:#CE4A63}
    .fil4 {fill:#E67B21}
    .fil1 {fill:#EF945A}
    .fil7 {fill:#EFAD7B}
    .fil6 {fill:#EFAD84}
    .fil5 {fill:#F7CEB5}
    .fil0 {fill:white}
   
  </style>
 
  
  
 
   
   
   
   
   
   
   
   
   
   
   
   
   
   
   
   
   
   
   
   
   
   
   
   
   
   
   
   
   
   
   
   
   
   
  </defs>
 <g
   id="g3935"><path
     style="fill:#ffffff"
     inkscape:connector-curvature="0"
     d="m 6.32009,153.171 c 0,-48.4843 0,-96.9332 0,-145.382 178.276,0 356.552,0 534.828,0 0,48.4489 0,96.8978 0,145.382 -178.276,0 -356.552,0 -534.828,0 z"
     class="fil0"
     id="_160380112" /><path
     style="fill:#ef945a"
     inkscape:connector-curvature="0"
     d="m 108.314,147.447 c 142.168,0 284.337,0.0508 426.556,0.10039 -0.0508,0.1004 -0.10039,0.20079 -0.15118,0.30237 -142.269,-0.10158 -284.537,-0.15118 -426.757,-0.20197 0.10039,-0.1004 0.20079,-0.15 0.35197,-0.20079 z"
     class="fil1"
     id="_160380232" /><path
     style="fill:#ce4a63"
     inkscape:connector-curvature="0"
     d="m 12.5977,147.698 c 0,-0.0508 0,-0.0508 0,-0.0508 22.95,0 45.9497,0 68.9493,0.0508 -22.9996,0 -45.9993,0 -68.9493,0 z"
     class="fil2"
     id="_160380328" /><path
     style="fill:#ce4a63"
     inkscape:connector-curvature="0"
     d="m 12.5977,14.1166 c 0,0 0,0.05079 0,0.100394 0,44.4438 0,88.937096 0,133.430996 0,0 0,0 0,0.0508 -0.100394,0 -0.151181,0 -0.200788,0 0,-44.5442 0,-89.087098 0,-133.581998 0.04961,0 0.100394,0 0.200788,0 z"
     class="fil2"
     id="_160380064" /><path
     style="fill:#ad2931"
     inkscape:connector-curvature="0"
     d="m 81.547,147.698 c -22.9996,-0.0508 -45.9993,-0.0508 -68.9493,-0.0508 0,-44.4934 0,-88.986698 0,-133.430998 22.95,-0.04961 45.9497,-0.100394 68.9493,-0.100394 2.36103,0.151181 4.77166,0.301182 7.18229,0.501969 0.200788,0.201969 3.013,0.50315 3.21378,0.703938 13.0063,2.41063 23.602,8.48623 33.5457,17.0233 4.82127,4.97245 8.6882,9.9945 12.404,15.8693 1.30512,2.7626 2.66103,5.52402 4.01693,8.28663 1.85906,6.12639 3.26457,11.6504 4.2189,17.928 0.0496,3.31418 0.15,6.67914 0.25157,10.0429 -0.30236,2.56181 -0.60354,5.12245 -0.85393,7.68426 -2.05985,10.042905 -5.6752,18.630705 -11.2488,27.167805 -2.81221,3.66615 -2.81221,3.66615 -3.013,4.11851 -7.38308,7.83308 -14.5134,13.4587 -24.0048,18.3296 -2.36103,0.85393 -4.67009,1.75748 -6.98032,2.66103 -6.076783,1.80827 -12.354303,3.013 -18.732303,3.26457 z"
     class="fil3"
     id="_160931448" /><path
     style="fill:#ff6600;fill-opacity:1"
     inkscape:connector-curvature="0"
     d="m 108.314,147.447 c 8.78741,-3.91654 16.3713,-8.9386 23.602,-15.3166 0.30118,-0.50197 2.81221,-2.86182 7.08072,-7.88387 3.91772,-5.47442 7.38308,-10.898 10.3453,-16.9736 0.85394,-2.36103 1.75748,-4.72087 2.66221,-7.03111 4.97127,-16.6217 4.71969,-32.6918 -0.50315,-49.2142 -0.85276,-2.20985 -1.7067,-4.41851 -2.56063,-6.57875 -4.92166,-9.64135 -10.7965,-17.6764 -18.5811,-25.2095 -2.00906,-1.7067 -4.01693,-3.36497 -6.02599,-5.02205 136.745,-0.04961 273.54,-0.100394 410.336,-0.100394 0.0496,0.05079 0.10039,0.100394 0.20079,0.151181 0,44.393 0,88.836703 0,133.279003 -142.219,-0.0496 -284.387,-0.1004 -426.556,-0.1004 z"
     class="fil4"
     id="_160931544" /><path
     style="fill:#ffffff"
     inkscape:connector-curvature="0"
     d="m 79.1871,133.586 c -2.81221,-19.6855 -6.02599,-39.5221 -8.13544,-59.2572 3.11339,-1.5567 4.01812,-4.92166 4.97127,-8.08584 0.603544,-3.41457 1.50709,-7.18111 1.25551,-10.6961 -5.97521,0.15 -12.5043,0.753544 -17.928,3.36497 -6.67914,0 -7.13033,-9.44175 -0.15,-10.0441 5.97521,2.31024 11.9516,3.16418 18.3296,3.36497 -0.301182,-6.27757 -0.954332,-12.2032 -3.31418,-18.0284 0,-1.70788 0.401575,-2.66221 1.50591,-3.91772 4.01812,-2.61142 7.83426,-0.903545 8.48741,3.81733 -2.46142,6.02599 -2.81221,11.4992 -3.31418,17.928 0.100394,0.04961 0.200788,0.100394 0.350788,0.200788 6.12757,-0.301182 12.3036,-0.853938 17.9788,-3.36497 6.879932,0.653151 6.527962,10.0441 -0.200788,10.0441 -5.42363,-2.71181 -12.1028,-3.11457 -18.0792,-3.26457 0.401575,3.71575 0.803151,17.3256 6.52914,18.7311 -0.302363,3.013 -0.50315,3.21378 -6.32836,46.703202 -0.200788,0.20079 -1.75748,12.1536 -1.95827,12.5043 z"
     class="fil0"
     id="_160931640" /><path
     style="fill:#ffffff"
     inkscape:connector-curvature="0"
     d="m 397.673,122.188 c -8.7886,-0.80433 -14.563,-3.81733 -19.5355,-11.2996 -0.75236,-1.5567 -1.4563,-3.11339 -2.15906,-4.67009 -4.72087,-18.2292 4.2189,-36.9615 23.8536,-39.2209 5.47442,0 10.5969,1.3063 15.7689,3.013 -0.10039,0.753544 -0.10039,0.753544 -3.11339,8.63741 -1.50709,-0.15 -1.50709,-0.15 -4.87087,-0.853938 -1.95945,0 -3.91772,0 -5.87599,0 -4.06772,1.00512 -6.82914,2.20985 -9.69214,5.32324 -5.62442,8.23584 -6.57875,19.384298 2.00906,26.013798 1.05473,0.50197 2.15906,1.00394 3.26339,1.50591 5.12245,0.70394 10.0441,0.35197 15.0154,-1.20473 1.05473,-0.50197 1.05473,-0.50197 1.40669,-0.50197 1.05473,2.00906 2.96221,4.62048 3.36497,6.82914 -6.07678,3.61654 -12.3543,5.62442 -19.4351,6.42875 z"
     class="fil0"
     id="_160931712" /><path
     style="fill:#ffffff"
     inkscape:connector-curvature="0"
     d="m 242.247,57.3048 c -1.35591,0 -2.71181,0 -4.01812,0 -8.9882,0 -16.3205,5.17205 -21.2918,12.2032 -1.50709,3.21378 -2.20985,5.37284 -2.41063,5.57481 -1.80827,7.28151 -1.3063,13.9099 1.10433,20.8902 3.56575,6.83032 7.43269,10.4457 14.4626,13.1575 1.50709,0.25157 3.01418,0.55276 4.57087,0.85394 3.163,0 8.28544,0.40157 10.9973,-0.95433 0,-5.62442 0.0508,-11.248804 0.10039,-16.873304 0,-0.151181 0,-0.151181 -12.9059,-0.351969 -0.0508,-3.56575 -0.0508,-7.13033 -0.0508,-10.6961 0,-0.05079 0,-0.100394 0,-0.100394 8.6386,0 17.3256,0 26.0138,0 0,11.902 0.0496,23.802797 0.10039,35.755597 -2.51103,0.85276 -5.02205,1.7067 -7.48229,2.56063 -4.3193,1.00394 -8.33623,2.00906 -12.8055,2.51103 -6.12757,0.25158 -11.2488,-0.30118 -17.1248,-2.00906 -11.2488,-4.67009 -17.928,-12.6047 -21.2929,-24.255197 -1.70788,-9.19017 -1.70788,-17.0244 1.00394,-26.1142 1.80827,-4.4693 4.26969,-8.13544 7.18229,-12.0012 5.37284,-5.37402 10.6961,-8.08584 17.8772,-10.6465 10.4457,-2.26063 20.439,-1.00512 30.6331,1.80709 -1.20473,3.36497 -2.35985,6.77954 -3.51497,10.1953 -6.83032,-1.10551 -6.83032,-1.10551 -11.1484,-1.50709 z"
     class="fil0"
     id="_160931784" /><path
     id="_160943568"
     transform="translate(0,-5e-4)"
     d="M 291.71875 67.15625 C 285.2714 67.392771 278.99731 69.863675 272.46875 72.46875 C 273.42308 75.02939 274.40231 77.63858 275.40625 80.25 C 278.21846 79.34645 281.012 78.447688 283.875 77.59375 C 286.93761 76.890993 290.51161 76.678887 293.625 77.28125 C 298.54666 79.39074 298.73671 83.30491 298.9375 88.125 C 290.0485 88.67776 281.67644 88.83459 274.09375 93.90625 C 272.53588 95.51255 270.76058 97.04173 269.65625 99 C 267.99916 103.36886 268.20192 107.01781 269.15625 111.4375 C 271.61651 116.66031 274.29512 119.41009 279.71875 121.46875 C 287.55185 122.92505 293.02519 119.81659 298.75 114.59375 C 298.8504 114.59375 298.94257 114.66915 299.09375 114.71875 C 299.8969 120.09277 300.09375 120.29256 300.09375 120.59375 C 303.86027 120.59375 307.63971 120.6379 311.40625 120.6875 C 311.35546 107.9824 311.3008 95.2676 311.25 82.5625 C 310.19527 76.8377 308.39666 72.95872 303.625 69.59375 C 299.53866 67.654231 295.58716 67.014338 291.71875 67.15625 z M 298.90625 96.375 C 298.95585 99.53918 298.98164 102.75496 299.03125 105.96875 C 296.7718 109.78608 291.0119 111.57889 286.84375 112.03125 C 283.98193 111.2281 282.02387 110.44386 280.71875 107.53125 C 279.01087 97.08675 291.52315 96.5757 298.90625 96.375 z "
     style="fill:#ffffff" /><path
     id="_160943640"
     transform="translate(0,-5e-4)"
     d="M 470.84375 67.0625 C 464.61695 67.76526 458.62442 69.87022 453 72.53125 C 452.59842 73.73715 454.93356 78.73627 455.9375 80.34375 C 461.6127 78.2343 466.38026 76.875 472.40625 76.875 C 472.60704 77.075788 472.58469 77.098425 474.59375 77.5 C 479.01344 79.81028 478.97342 83.51741 479.375 88.1875 C 468.5277 88.8902 453.8314 88.790151 449.3125 101.09375 C 447.2031 111.33865 452.3535 120.4433 463 122 C 469.52914 122 474.5932 119.0318 479.0625 114.5625 C 479.21368 114.5117 479.38007 114.5 479.53125 114.5 C 480.28479 119.77363 480.27421 119.77731 480.625 120.78125 C 484.2911 120.73166 487.97175 120.6875 491.6875 120.6875 C 491.6875 108.6851 491.66795 96.73285 491.71875 84.78125 C 491.0656 77.49859 489.20842 73.21108 483.03125 69.09375 C 479.61668 67.737845 478.13829 67.544538 477.9375 67.34375 C 475.57765 67.243356 473.20478 67.162894 470.84375 67.0625 z M 479.28125 96.3125 C 479.28125 99.62668 479.32541 103.01124 479.375 106.375 C 474.9057 110.09193 466.4213 115.45375 461.75 108.875 C 456.82952 97.9781 472.15095 96.5133 479.28125 96.3125 z "
     style="fill:#ffffff" /><path
     style="fill:#ef945a"
     inkscape:connector-curvature="0"
     d="m 351.723,120.781 c 4.21772,-0.0496 8.43663,-0.10039 12.7051,-0.10039 -0.70276,0.70275 -11.0988,0.10039 -12.7051,0.10039 z"
     class="fil1"
     id="_160943712" /><path
     style="fill:#ef945a"
     inkscape:connector-curvature="0"
     d="m 480.634,120.781 c 3.66615,-0.0496 7.33229,-0.10039 11.048,-0.10039 0.0508,0 0.10039,0 0.15118,0 -0.15118,0.0508 -0.30118,0.10039 -0.45236,0.20078 -3.61536,-0.0496 -7.18111,-0.10039 -10.7469,-0.10039 z"
     class="fil1"
     id="_160943808" /><path
     style="fill:#ef945a"
     inkscape:connector-curvature="0"
     d="m 300.098,120.58 c 3.76654,0 7.53308,0.0508 11.2996,0.10039 -11.5004,0 -11.5004,0 -11.2996,-0.10039 z"
     class="fil1"
     id="_160943784" /><path
     style="fill:#ef945a"
     inkscape:connector-curvature="0"
     d="m 324.354,41.2347 c 0,26.465 0.0508,52.93 0.10039,79.4458 4.3193,0 8.6882,0 13.0571,0 -4.4693,0 -8.9386,0 -13.4079,0 0.0496,-26.5158 0.15,-52.9808 0.2504,-79.4458 z"
     class="fil1"
     id="_160943952" /><path
     style="fill:#ef945a"
     inkscape:connector-curvature="0"
     d="m 427.051,120.68 c 4.3193,0 8.6882,0 13.0571,0 -13.0571,0.15118 -13.0571,0.15118 -13.0571,0 z"
     class="fil1"
     id="_160943928" /><path
     style="fill:#ef945a"
     inkscape:connector-curvature="0"
     d="m 351.371,68.3529 c 0,17.4756 0,34.9524 0,52.428 -0.15,0 -0.15,0 0,-52.428 z"
     class="fil1"
     id="_160201728" /><path
     style="fill:#ffffff"
     inkscape:connector-curvature="0"
     d="m 351.371,120.781 c 0,-17.4756 0,-34.9524 0,-52.428 0.0508,0 0.10039,0 0.20079,0 4.2189,0 8.43663,0 12.7051,0 0.0508,17.426 0.10039,34.852 0.15118,52.3276 -4.26851,0 -8.48741,0.0508 -12.7051,0.10039 -0.15118,0 -0.25158,0 -0.35197,0 z"
     class="fil0"
     id="_160201800" /><path
     style="fill:#ffffff"
     inkscape:connector-curvature="0"
     d="m 324.354,41.2347 c 0,-0.100394 0,-0.200788 0,-0.301182 4.3689,0 8.73899,0 13.1575,0 0,26.5654 0,53.1308 0,79.747002 -4.3689,0 -8.73781,0 -13.0571,0 -0.0496,-26.515802 -0.10039,-52.980802 -0.10039,-79.445802 z"
     class="fil0"
     id="_160201896" /><path
     style="fill:#ffffff"
     inkscape:connector-curvature="0"
     d="m 427.051,120.68 c 0,-17.426 0,-34.852 0,-52.2272 4.26851,-0.04961 8.58781,-0.100394 12.9059,-0.100394 0.0508,17.426 0.10039,34.852004 0.15118,52.327604 -4.3689,0 -8.73781,0 -13.0571,0 z"
     class="fil0"
     id="_160201968" /><path
     style="fill:#f7ceb5"
     inkscape:connector-curvature="0"
     d="m 491.682,120.68 c 0,-12.0024 0,-23.954 0.0508,-35.9056 0,11.9516 0.0496,23.9032 0.10039,35.9056 -0.0508,0 -0.10039,0 -0.15118,0 z"
     class="fil5"
     id="_160202040" /><path
     style="fill:#f7ceb5"
     inkscape:connector-curvature="0"
     d="m 258.919,116.764 c -0.0508,-11.9528 -0.10039,-23.8536 -0.10039,-35.7556 0,-0.05079 0.0496,-0.100394 0.10039,-0.100394 0,11.9516 0,23.903204 0,35.856004 z"
     class="fil5"
     id="_160202136" /><path
     style="fill:#efad84"
     inkscape:connector-curvature="0"
     d="m 479.378,106.368 c -0.0496,-3.36378 -0.10039,-6.72875 -0.10039,-10.0429 0.0508,0 0.10039,0.04961 0.20078,0.100394 -0.0496,3.31418 -0.10039,6.628356 -0.10039,9.942526 z"
     class="fil6"
     id="_160208248" /><path
     style="fill:#efad7b"
     inkscape:connector-curvature="0"
     d="m 232.705,91.8049 c 0.0508,0 0.10039,0 0.15118,0 12.9059,0.200788 12.9059,0.200788 12.9059,0.351969 -4.31812,-0.05079 -8.63741,-0.05079 -12.9567,-0.05079 -0.0496,-0.100394 -0.10039,-0.200789 -0.10039,-0.301182 z"
     class="fil7"
     id="_160208344" /><path
     style="fill:#f7ceb5"
     inkscape:connector-curvature="0"
     d="m 232.705,91.8049 c 0,-3.56575 0.0508,-7.13033 0.10039,-10.6961 0,3.56575 0,7.13033 0.0508,10.6961 -0.0508,0 -0.10039,0 -0.15118,0 z"
     class="fil5"
     id="_160208440" /><path
     style="fill:#efad84"
     inkscape:connector-curvature="0"
     d="m 232.805,81.0084 c 0,-0.151181 0,-0.151181 26.1142,-0.100394 -0.0508,0 -0.10039,0.04961 -0.10039,0.100394 -8.6882,0 -17.3752,0 -26.0138,0 z"
     class="fil6"
     id="_160208512" /><path
     style="fill:#f7ceb5"
     inkscape:connector-curvature="0"
     d="m 427.051,68.4532 c 0,-0.15 0,-0.15 12.9059,-0.100394 -4.31812,0 -8.63741,0.05079 -12.9059,0.100394 z"
     class="fil5"
     id="_160201872" /><path
     style="fill:#ffffff"
     inkscape:connector-curvature="0"
     d="m 357.498,56.752 c -6.62836,-0.803151 -8.33623,-7.93466 -4.21772,-12.554 6.52796,-4.11851 12.9059,0.903545 10.9973,8.33623 -1.7067,2.81221 -3.56457,3.91654 -6.77954,4.21772 z"
     class="fil0"
     id="_160211680" /><path
     style="fill:#ffffff"
     inkscape:connector-curvature="0"
     d="m 433.177,56.752 c -5.57363,-1.10433 -8.08466,-5.87481 -5.42363,-11.198 3.21497,-3.61654 8.13544,-4.01812 11.4508,-0.151181 2.41063,4.97245 0.90355,9.24096 -4.11851,11.1484 -0.65315,0.05079 -1.30512,0.100394 -1.90866,0.200788 z"
     class="fil0"
     id="_160211752" /><path
     style="fill:#efad84"
     inkscape:connector-curvature="0"
     d="m 324.354,40.9335 c 0.0508,-0.15 0.10039,-0.251575 0.20079,-0.351969 4.2189,0 8.48741,0 12.7559,0 0.0508,0.100394 0.10039,0.201969 0.20079,0.351969 -4.41851,0 -8.7886,0 -13.1575,0 z"
     class="fil6"
     id="_160211824" /><path
     style="fill:#ce4a63"
     inkscape:connector-curvature="0"
     d="m 12.5977,14.2169 c 0,-0.04961 0,-0.100394 0,-0.100394 22.95,0 45.9497,0 68.9493,0 -22.9996,0 -45.9993,0.05079 -68.9493,0.100394 z"
     class="fil2"
     id="_160211896" /><path
     style="fill:#ef945a"
     inkscape:connector-curvature="0"
     d="m 124.334,14.2169 c 0,-0.15 0,-0.15 410.336,-0.100394 -136.795,0 -273.591,0.05079 -410.336,0.100394 z"
     class="fil1"
     id="_160211656" /></g>
</svg>