<svg width="40" height="40" viewBox="0 0 40 40" fill="none" xmlns="http://www.w3.org/2000/svg">
<g id="Group 4">
<path id="Vector" d="M40 20C40 8.9543 31.0457 0 20 0C8.9543 0 0 8.9543 0 20C0 31.0457 8.9543 40 20 40C31.0457 40 40 31.0457 40 20Z" fill="#4267B2"/>
<path id="Vector_2" d="M21.3354 33.3332V21.1693H25.4183L26.0296 16.4288H21.3354V13.4022C21.3354 12.0297 21.7166 11.0943 23.6848 11.0943L26.1951 11.0932V6.85334C25.7607 6.79578 24.2707 6.66675 22.5371 6.66675C18.9179 6.66675 16.4401 8.87583 16.4401 12.9329V16.429H12.3466V21.1695H16.44V33.3334L21.3354 33.3332Z" fill="white"/>
</g>
</svg>
