<svg width="40" height="40" viewBox="0 0 40 40" fill="none" xmlns="http://www.w3.org/2000/svg">
<g id="Group 5">
<path id="Vector" d="M40 20C40 8.9543 31.0457 0 20 0C8.9543 0 0 8.9543 0 20C0 31.0457 8.9543 40 20 40C31.0457 40 40 31.0457 40 20Z" fill="url(#paint0_linear_32_3279)"/>
<path id="Vector_2" d="M15.8345 20C15.8345 17.6989 17.6994 15.833 20.0005 15.833C22.3016 15.833 24.1675 17.6989 24.1675 20C24.1675 22.3011 22.3016 24.167 20.0005 24.167C17.6994 24.167 15.8345 22.3011 15.8345 20ZM13.5819 20C13.5819 23.545 16.4555 26.4186 20.0005 26.4186C23.5455 26.4186 26.4191 23.545 26.4191 20C26.4191 16.455 23.5455 13.5814 20.0005 13.5814C16.4555 13.5814 13.5819 16.455 13.5819 20ZM25.1731 13.3269C25.1731 13.6236 25.2609 13.9136 25.4256 14.1603C25.5904 14.4071 25.8246 14.5994 26.0986 14.7131C26.3726 14.8268 26.6742 14.8566 26.9652 14.7988C27.2562 14.741 27.5236 14.5982 27.7334 14.3886C27.9433 14.1789 28.0862 13.9117 28.1442 13.6207C28.2022 13.3298 28.1726 13.0282 28.0592 12.754C27.9458 12.4799 27.7536 12.2456 27.5071 12.0807C27.2604 11.9158 26.9705 11.8276 26.6738 11.8275C26.2762 11.8277 25.8942 11.9857 25.613 12.2668C25.3317 12.548 25.1736 12.9293 25.1731 13.3269ZM14.9505 30.1747C13.7318 30.1192 13.0694 29.9162 12.6291 29.7447C12.0456 29.5175 11.6291 29.2469 11.1914 28.8097C10.7536 28.3725 10.4826 27.9565 10.2564 27.3729C10.0848 26.9329 9.88181 26.2703 9.8264 25.0516C9.76581 23.734 9.75373 23.3382 9.75373 20.0001C9.75373 16.662 9.76681 16.2673 9.8264 14.9486C9.8819 13.7299 10.0864 13.0686 10.2564 12.6273C10.4836 12.0437 10.7542 11.6273 11.1914 11.1895C11.6286 10.7517 12.0446 10.4807 12.6291 10.2545C13.0691 10.0829 13.7318 9.87992 14.9505 9.8245C16.2681 9.76392 16.6639 9.75183 20.0005 9.75183C23.3371 9.75183 23.7333 9.76492 25.052 9.8245C26.2706 9.88 26.932 10.0845 27.3733 10.2545C27.9569 10.4807 28.3733 10.7523 28.8111 11.1895C29.2489 11.6267 29.5189 12.0437 29.7461 12.6273C29.9176 13.0673 30.1206 13.7299 30.1761 14.9486C30.2366 16.2673 30.2488 16.662 30.2488 20.0001C30.2488 23.3382 30.2366 23.7329 30.1761 25.0516C30.1206 26.2703 29.9166 26.9327 29.7461 27.3729C29.5189 27.9565 29.2483 28.3729 28.8111 28.8097C28.3739 29.2465 27.9569 29.5175 27.3733 29.7447C26.9333 29.9163 26.2706 30.1193 25.052 30.1747C23.7344 30.2353 23.3386 30.2474 20.0005 30.2474C16.6624 30.2474 16.2676 30.2353 14.9505 30.1747ZM14.847 7.5757C13.5163 7.6363 12.607 7.8473 11.8129 8.1563C10.9905 8.47542 10.2943 8.9035 9.59856 9.59808C8.9029 10.2927 8.4759 10.99 8.15679 11.8124C7.84779 12.607 7.63679 13.5158 7.57619 14.8465C7.51459 16.1793 7.50049 16.6054 7.50049 20C7.50049 23.3946 7.51459 23.8207 7.57619 25.1535C7.63679 26.4843 7.84779 27.393 8.15679 28.1876C8.4759 29.0095 8.90298 29.7076 9.59856 30.4019C10.2941 31.0962 10.9905 31.5237 11.8129 31.8437C12.6085 32.1527 13.5163 32.3637 14.847 32.4243C16.1805 32.4849 16.6059 32.5 20.0005 32.5C23.3951 32.5 23.8211 32.4859 25.154 32.4243C26.4848 32.3637 27.3935 32.1527 28.1881 31.8437C29.01 31.5237 29.7066 31.0965 30.4024 30.4019C31.0981 29.7073 31.5242 29.0095 31.8441 28.1876C32.1531 27.393 32.3651 26.4842 32.4248 25.1535C32.4854 23.8197 32.4995 23.3946 32.4995 20C32.4995 16.6054 32.4854 16.1793 32.4248 14.8465C32.3641 13.5157 32.1531 12.6065 31.8441 11.8124C31.5242 10.9905 31.097 10.2938 30.4024 9.59808C29.7078 8.90242 29.01 8.47542 28.1891 8.1563C27.3935 7.8473 26.4846 7.6353 25.155 7.5757C23.8221 7.5151 23.3961 7.5 20.0015 7.5C16.6069 7.5 16.1805 7.5141 14.847 7.5757Z" fill="white"/>
</g>
<defs>
<linearGradient id="paint0_linear_32_3279" x1="1.34797e-07" y1="-5.78947" x2="2.89473" y2="47.7632" gradientUnits="userSpaceOnUse">
<stop stop-color="#417AED"/>
<stop offset="0.180478" stop-color="#7E4DC3"/>
<stop offset="0.400573" stop-color="#E72F75"/>
<stop offset="0.595629" stop-color="#FF3342"/>
<stop offset="0.873779" stop-color="#FFC965"/>
</linearGradient>
</defs>
</svg>
