<svg width="40" height="40" viewBox="0 0 40 40" fill="none" xmlns="http://www.w3.org/2000/svg">
<g id="Group 2">
<path id="Vector" d="M40 20C40 8.9543 31.0457 0 20 0C8.9543 0 0 8.9543 0 20C0 31.0457 8.9543 40 20 40C31.0457 40 40 31.0457 40 20Z" fill="#1DA1F2"/>
<path id="Vector_2" d="M29.8021 15.677C29.8021 15.8958 29.8021 16.1145 29.8021 16.302C29.8021 22.7708 24.8646 30.2395 15.8646 30.2395C13.0834 30.2395 10.5209 29.427 8.33337 28.052C8.70837 28.0833 9.11462 28.1145 9.48962 28.1145C11.7709 28.1145 13.8959 27.3333 15.5834 26.0208C13.4271 25.9895 11.6146 24.552 11.0209 22.6145C11.3334 22.677 11.6146 22.7083 11.9584 22.7083C12.3959 22.7083 12.8334 22.6458 13.2396 22.5208C10.9896 22.0833 9.30212 20.1145 9.30212 17.7395C9.30212 17.7083 9.30212 17.7083 9.30212 17.677C9.95837 18.052 10.7084 18.2708 11.5209 18.302C10.2084 17.427 9.33337 15.927 9.33337 14.2083C9.33337 13.302 9.58337 12.4583 9.98962 11.7395C12.3959 14.7083 16.0209 16.6458 20.0834 16.8645C19.9896 16.5208 19.9584 16.1145 19.9584 15.7395C19.9584 13.0208 22.1459 10.8333 24.8646 10.8333C26.2709 10.8333 27.5521 11.427 28.4271 12.3645C29.5521 12.1458 30.5834 11.7395 31.5521 11.177C31.1771 12.3333 30.3959 13.2708 29.3959 13.8958C30.3959 13.7708 31.3334 13.5208 32.2084 13.1145C31.5834 14.1145 30.7709 14.9895 29.8021 15.677Z" fill="white"/>
</g>
</svg>
