<svg width="40" height="40" viewBox="0 0 40 40" fill="none" xmlns="http://www.w3.org/2000/svg">
<g id="Group 1">
<path id="Vector" d="M40 20C40 8.9543 31.0457 0 20 0C8.9543 0 0 8.9543 0 20C0 31.0457 8.9543 40 20 40C31.0457 40 40 31.0457 40 20Z" fill="#FF0000"/>
<path id="Vector_2" fill-rule="evenodd" clip-rule="evenodd" d="M29.7816 11.7835C30.8524 12.0717 31.6968 12.916 31.9851 13.9869C32.5205 15.9432 32.4999 20.0206 32.4999 20.0206C32.4999 20.0206 32.4999 24.0775 31.9851 26.0338C31.6968 27.1046 30.8524 27.949 29.7816 28.2372C27.8253 28.752 19.9999 28.752 19.9999 28.752C19.9999 28.752 12.1952 28.752 10.2183 28.2166C9.14742 27.9283 8.30313 27.084 8.01483 26.0132C7.5 24.0775 7.5 20 7.5 20C7.5 20 7.5 15.9432 8.01483 13.9869C8.30313 12.916 9.168 12.0511 10.2183 11.7628C12.1746 11.248 19.9999 11.248 19.9999 11.248C19.9999 11.248 27.8253 11.248 29.7816 11.7835ZM24.0156 20L17.5082 23.748V16.2521L24.0156 20Z" fill="white"/>
</g>
</svg>
