<svg width="40" height="40" viewBox="0 0 40 40" fill="none" xmlns="http://www.w3.org/2000/svg">
<g id="Group 3">
<path id="Vector" d="M40 20C40 8.9543 31.0457 0 20 0C8.9543 0 0 8.9543 0 20C0 31.0457 8.9543 40 20 40C31.0457 40 40 31.0457 40 20Z" fill="#0077B5"/>
<path id="Vector_2" d="M31.1041 29.4376C29.7916 29.4064 28.5104 29.4064 27.1979 29.4376C26.9166 29.4376 26.8541 29.3751 26.8541 29.0939C26.8541 26.7814 26.8541 24.4376 26.8541 22.1251C26.8541 21.5939 26.8229 21.0626 26.6666 20.5626C26.1979 18.9376 24.3229 18.3439 22.9791 19.4376C22.2604 20.0001 21.9791 20.7814 21.9791 21.7189C21.9791 23.9064 21.9791 26.0939 21.9791 28.2814C21.9791 28.5626 21.9479 28.8439 21.9791 29.1564C22.0104 29.4064 21.8854 29.4689 21.6666 29.4376C20.3229 29.4376 19.0104 29.4376 17.6666 29.4376C17.4166 29.4376 17.3541 29.3751 17.3541 29.1251C17.3854 27.1564 17.3854 25.1876 17.3854 23.1876C17.3854 20.7501 17.3854 18.3126 17.3541 15.9064C17.3541 15.6251 17.4166 15.5626 17.6666 15.5626C19.0104 15.5626 20.3229 15.5626 21.6666 15.5626C21.9166 15.5626 21.9791 15.6251 21.9791 15.8751C21.9791 16.3751 21.9791 16.8751 21.9791 17.4689C22.0729 17.3751 22.1041 17.3439 22.1354 17.3126C23.3541 15.5314 25.0729 15.0314 27.1041 15.3439C29.4479 15.7189 30.9479 17.3439 31.3229 19.8439C31.4166 20.4376 31.4479 21.0314 31.4479 21.6251C31.4479 24.1251 31.4479 26.5939 31.4479 29.0939C31.4479 29.3439 31.3854 29.4376 31.1041 29.4376Z" fill="white"/>
<path id="Vector_3" d="M14.8541 22.4998C14.8541 24.6873 14.8541 26.8748 14.8541 29.0623C14.8541 29.3435 14.7916 29.4373 14.5104 29.4373C13.1979 29.406 11.8854 29.4373 10.5729 29.4373C10.3229 29.4373 10.2604 29.3748 10.2604 29.1248C10.2604 24.7185 10.2604 20.281 10.2604 15.8748C10.2604 15.656 10.3229 15.5623 10.5729 15.5623C11.9166 15.5623 13.2604 15.5623 14.6041 15.5623C14.8854 15.5623 14.9166 15.656 14.9166 15.906C14.8541 18.0935 14.8541 20.281 14.8541 22.4998Z" fill="white"/>
<path id="Vector_4" d="M15.0729 11.9375C14.7604 13.1875 13.4792 13.9063 12.0104 13.6563C10.4479 13.4063 9.57291 11.875 10.1354 10.375C10.5104 9.43752 11.4167 8.87502 12.5729 8.90627C14.3229 8.87502 15.4792 10.2813 15.0729 11.9375Z" fill="white"/>
</g>
</svg>
